<?xml version="1.0" encoding="utf-8"?>
<!-- Generator: Adobe Illustrator 16.0.3, SVG Export Plug-In . SVG Version: 6.00 Build 0)  -->
<!DOCTYPE svg PUBLIC "-//W3C//DTD SVG 1.1//EN" "http://www.w3.org/Graphics/SVG/1.1/DTD/svg11.dtd">
<svg version="1.1" id="svg-logo-en" xmlns="http://www.w3.org/2000/svg" xmlns:xlink="http://www.w3.org/1999/xlink" x="0px"
	 y="0px" width="543.569px" height="306px" viewBox="30 243 543.569 306" enable-background="new 30 243 543.569 306"
	 xml:space="preserve">
<title>logo-en</title>
<g>
	<path d="M232.645,287.96v-41.219h20.254l-0.364,4.116h-14.695v15.238h13.563v4.116h-13.563v17.748H232.645L232.645,287.96z
		 M276.25,268.963c0,1.238-0.037,2.295-0.117,3.194c-0.069,0.788-0.149,1.575-0.24,2.361h-14.634
		c0.157,3.388,0.885,5.876,2.179,7.468c1.297,1.592,3.162,2.39,5.588,2.39c0.838,0,1.596-0.098,2.273-0.299
		c1.424-0.399,2.721-1.161,3.763-2.211l1.796,3.402c-0.201,0.2-0.5,0.488-0.896,0.867c-0.4,0.375-0.936,0.754-1.614,1.129
		c-0.796,0.427-1.64,0.76-2.514,0.991c-1.148,0.297-2.333,0.438-3.519,0.419c-1.792,0-3.417-0.303-4.87-0.9
		c-1.45-0.596-2.724-1.553-3.701-2.779c-1.013-1.253-1.8-2.849-2.357-4.78c-0.558-1.931-0.838-4.251-0.838-6.958
		c0-2.55,0.292-4.75,0.867-6.601c0.576-1.858,1.363-3.377,2.361-4.572c0.995-1.191,2.149-2.077,3.46-2.659
		c1.319-0.572,2.732-0.86,4.244-0.86c2.747,0,4.899,0.863,6.448,2.597c1.556,1.73,2.332,4.335,2.332,7.796L276.25,268.963z
		 M267.172,262.515c-1.712,0-3.085,0.714-4.116,2.149c-1.042,1.432-1.64,3.497-1.796,6.211h10.455
		c0.037-0.2,0.073-0.488,0.087-0.867c0.021-0.408,0.03-0.816,0.029-1.224c0-1.993-0.401-3.534-1.195-4.626
		c-0.801-1.1-1.949-1.646-3.46-1.646L267.172,262.515z M281.394,274.037c0-2.903,0.375-5.333,1.129-7.286
		c0.758-1.949,1.734-3.523,2.929-4.717c1.195-1.195,2.55-2.04,4.062-2.539c1.462-0.489,2.993-0.741,4.535-0.747
		c0.918,0,1.712,0.073,2.39,0.208c0.681,0.139,1.239,0.31,1.676,0.51v-13.741l4.845-0.539v42.774h-4.426v-3.049h-0.117
		c-0.486,0.882-1.16,1.647-1.974,2.24c-0.638,0.461-1.342,0.825-2.087,1.078c-0.838,0.299-1.811,0.448-2.925,0.448
		c-1.355,0-2.638-0.273-3.854-0.813c-1.263-0.576-2.361-1.458-3.195-2.568c-0.922-1.177-1.646-2.688-2.186-4.539
		C281.66,278.9,281.394,276.664,281.394,274.037L281.394,274.037z M292.741,284.375c1.771,0.037,3.474-0.678,4.688-1.967
		c0.298-0.328,0.528-0.601,0.692-0.837v-17.69c-0.48-0.298-0.994-0.539-1.53-0.718c-0.705-0.217-1.441-0.318-2.179-0.299
		c-1.115,0-2.16,0.189-3.133,0.568c-0.983,0.379-1.821,1.006-2.542,1.884c-0.718,0.874-1.286,2.011-1.702,3.402
		c-0.422,1.398-0.634,3.111-0.634,5.144c0,1.989,0.171,3.654,0.51,4.991c0.339,1.33,0.801,2.404,1.402,3.22
		c0.601,0.82,1.275,1.406,2.04,1.763C291.105,284.201,291.903,284.375,292.741,284.375z M328.762,268.966
		c0,1.231-0.037,2.295-0.12,3.191c-0.067,0.788-0.147,1.575-0.237,2.361h-14.637c0.16,3.388,0.885,5.876,2.186,7.468
		c1.29,1.592,3.151,2.39,5.581,2.39c0.831,0,1.589-0.098,2.267-0.299c1.424-0.399,2.721-1.161,3.762-2.211l1.793,3.402
		c-0.2,0.2-0.499,0.488-0.896,0.867c-0.393,0.375-0.932,0.754-1.609,1.129c-0.795,0.427-1.636,0.759-2.507,0.991
		c-1.151,0.298-2.337,0.439-3.526,0.419c-1.792,0-3.413-0.303-4.867-0.9c-1.451-0.596-2.727-1.553-3.704-2.779
		c-1.021-1.253-1.808-2.849-2.368-4.78c-0.554-1.931-0.83-4.251-0.83-6.958c0-2.55,0.291-4.75,0.863-6.601
		c0.575-1.858,1.362-3.377,2.356-4.572c0.995-1.191,2.149-2.077,3.461-2.659c1.319-0.572,2.731-0.86,4.247-0.86
		c2.747,0,4.896,0.863,6.448,2.597c1.556,1.73,2.331,4.335,2.331,7.796L328.762,268.966z M319.68,262.507
		c-1.712,0-3.085,0.718-4.116,2.149c-1.038,1.435-1.64,3.504-1.796,6.215h10.455c0.037-0.201,0.072-0.488,0.091-0.867
		c0.021-0.408,0.03-0.816,0.029-1.224c0-1.992-0.4-3.533-1.194-4.626c-0.802-1.101-1.953-1.647-3.461-1.647H319.68z
		 M347.817,263.527c-0.245-0.131-0.506-0.233-0.776-0.302c-0.525-0.136-1.067-0.197-1.609-0.182c-1.512,0-2.696,0.412-3.552,1.228
		c-0.802,0.736-1.425,1.646-1.821,2.659v21.027h-4.846v-28.673h4.43v3.883h0.12c0.201-0.558,0.459-1.104,0.78-1.64
		c0.316-0.539,0.714-1.02,1.194-1.435c0.474-0.419,1.046-0.747,1.701-0.983c0.759-0.257,1.557-0.38,2.357-0.364
		c0.678,0,1.224,0.062,1.639,0.182c0.423,0.12,0.751,0.218,0.984,0.298l-0.595,4.299L347.817,263.527z M350.622,280.667
		c0-1.668,0.328-3.06,0.958-4.178c0.638-1.115,1.494-2.022,2.572-2.717c1.158-0.73,2.443-1.237,3.789-1.494
		c1.457-0.299,3.001-0.448,4.633-0.448h1.494v-2.747c0-2.43-0.43-4.102-1.286-5.02c-0.856-0.911-2.062-1.374-3.613-1.374
		c-1.432,0-2.623,0.31-3.585,0.925c-0.954,0.62-1.712,1.166-2.27,1.64l-2.032-3.224c0.32-0.32,0.729-0.678,1.228-1.075
		c0.495-0.401,1.104-0.779,1.821-1.136c0.718-0.357,1.53-0.656,2.448-0.896s1.952-0.357,3.106-0.357
		c2.951,0,5.173,0.816,6.692,2.448c1.512,1.632,2.27,4.262,2.27,7.887v13.085c0,1.239,0.036,2.441,0.116,3.614
		c0.073,1.177,0.157,1.96,0.237,2.36H364.6l-0.182-3.169h-0.116c-0.157,0.364-0.401,0.765-0.715,1.228
		c-0.334,0.473-0.737,0.894-1.194,1.25c-0.529,0.407-1.113,0.738-1.734,0.983c-0.761,0.295-1.573,0.439-2.39,0.423
		c-1.074,0-2.076-0.204-3.016-0.601c-1.874-0.79-3.342-2.313-4.063-4.215c-0.385-1.021-0.577-2.104-0.564-3.195L350.622,280.667z
		 M359.292,284.554c0.675,0,1.275-0.099,1.785-0.299c0.521-0.2,0.97-0.437,1.348-0.718c0.379-0.277,0.692-0.583,0.955-0.925
		c0.225-0.294,0.455-0.583,0.692-0.867v-6.332l-1.56,0.059c-2.31,0.08-4.062,0.48-5.257,1.195c-1.194,0.717-1.792,1.872-1.792,3.468
		c0,1.472,0.339,2.576,1.02,3.315c0.674,0.736,1.61,1.104,2.806,1.104H359.292z M380.913,281.268c0,1.195,0.167,2.033,0.51,2.514
		c0.335,0.474,0.922,0.714,1.756,0.714c0.438,0,0.809-0.036,1.107-0.116c0.299-0.081,0.528-0.161,0.685-0.241l0.419,3.584
		c-0.428,0.188-0.868,0.346-1.318,0.474c-0.837,0.226-1.702,0.328-2.568,0.303c-1.632,0-2.951-0.5-3.941-1.494
		c-0.991-0.998-1.494-2.769-1.494-5.319v-35.962l4.849-0.539v36.083H380.913z M437.777,246.741v41.219h-5.016v-19.599v-3.643
		c0-1.191,0.011-2.306,0.036-3.344c0.015-1.035,0.044-1.949,0.084-2.747c0.036-0.802,0.08-1.414,0.12-1.851h-0.183
		c-0.2,0.911-0.607,2.397-1.224,4.444c-0.619,2.055-1.326,4.255-2.124,6.604l-6.805,20.134h-4.124l-6.812-20.134
		c-0.794-2.35-1.501-4.554-2.113-6.601c-0.619-2.051-1.03-3.534-1.228-4.444h-0.182c0.107,1.541,0.177,3.083,0.207,4.626
		c0.022,1.013,0.037,2.12,0.037,3.315v23.242h-5.021v-41.227h5.792l9.737,28.433c0.438,1.312,0.827,2.601,1.166,3.854
		c0.339,1.253,0.547,2.338,0.627,3.256h0.12c0.036-0.918,0.229-1.993,0.568-3.228c0.339-1.238,0.729-2.506,1.165-3.825l9.737-28.487
		h5.429H437.777z M451.038,287.96h-4.834v-28.676h4.837v28.676H451.038z M448.651,252.355c-0.994,0-1.792-0.317-2.39-0.955
		c-0.601-0.638-0.899-1.476-0.899-2.514c0-0.991,0.299-1.807,0.896-2.44c0.595-0.641,1.393-0.962,2.387-0.962
		c0.958,0,1.733,0.321,2.331,0.958c0.598,0.638,0.896,1.457,0.896,2.448c0,1.034-0.292,1.872-0.893,2.514
		c-0.604,0.636-1.454,0.981-2.331,0.947L448.651,252.355z M474.101,287.96v-18.458c0-2.43-0.4-4.175-1.221-5.228
		c-0.815-1.057-2.062-1.585-3.733-1.585c-1.432,0-2.623,0.357-3.585,1.075c-0.954,0.718-1.712,1.414-2.27,2.091v22.104h-4.838
		v-28.676h4.419v3.228h0.12c0.591-0.952,1.388-1.758,2.332-2.361c0.712-0.456,1.475-0.827,2.272-1.107
		c0.875-0.32,1.873-0.474,2.987-0.474c1.275,0,2.43,0.183,3.461,0.561c1.038,0.375,1.916,0.984,2.63,1.822
		c0.718,0.838,1.275,1.919,1.676,3.253c0.401,1.333,0.598,2.98,0.598,4.929v18.819h-4.845L474.101,287.96z M491.011,287.96h-4.838
		v-28.676h4.838V287.96z M488.621,252.355c-0.994,0-1.792-0.317-2.39-0.955s-0.896-1.476-0.896-2.514
		c0-0.991,0.299-1.807,0.896-2.44c0.598-0.641,1.396-0.962,2.39-0.962c0.954,0,1.734,0.321,2.331,0.958
		c0.598,0.638,0.896,1.457,0.896,2.448c0,1.034-0.299,1.872-0.896,2.514c-0.604,0.636-1.454,0.981-2.331,0.947V252.355z
		 M510.784,265.079c-0.531-0.538-1.112-1.026-1.734-1.457c-0.837-0.619-1.931-0.929-3.278-0.929c-1.274,0-2.259,0.299-2.933,0.896
		c-0.646,0.526-1.021,1.316-1.02,2.149c0,1.082,0.31,1.967,0.925,2.659c0.62,0.703,1.566,1.446,2.842,2.244l1.785,1.075
		c1.956,1.158,3.489,2.404,4.604,3.737c1.114,1.333,1.676,3.06,1.676,5.173c0,2.266-0.79,4.179-2.368,5.73
		c-1.566,1.548-3.825,2.331-6.775,2.331c-1.155,0-2.171-0.124-3.046-0.364c-0.789-0.208-1.557-0.488-2.295-0.838
		c-0.591-0.274-1.145-0.625-1.646-1.042c-0.437-0.379-0.801-0.729-1.078-1.045l2.331-3.825c0.237,0.24,0.528,0.517,0.867,0.838
		c0.817,0.754,1.786,1.325,2.842,1.676c0.594,0.197,1.289,0.292,2.087,0.292c1.432,0,2.528-0.317,3.279-0.955
		c0.721-0.558,1.142-1.419,1.14-2.332c0.012-0.598-0.079-1.193-0.27-1.759c-0.177-0.498-0.448-0.956-0.802-1.348
		c-0.394-0.426-0.837-0.805-1.318-1.129c-0.591-0.407-1.188-0.806-1.792-1.194l-1.793-1.137c-1.792-1.155-3.194-2.368-4.211-3.643
		c-1.02-1.275-1.522-2.907-1.522-4.899c0-1.075,0.208-2.062,0.627-2.958c0.416-0.893,1.017-1.688,1.763-2.332
		c0.758-0.656,1.64-1.173,2.659-1.552c1.042-0.383,2.144-0.576,3.253-0.568c0.966-0.018,1.931,0.092,2.867,0.328
		c1.294,0.336,2.491,0.97,3.497,1.851c0.379,0.339,0.685,0.627,0.926,0.867l-2.092,3.46H510.784z M531.574,263.232h-6.273v15.89
		c0,2.029,0.255,3.414,0.776,4.153c0.517,0.736,1.396,1.104,2.63,1.104c0.714,0,1.333-0.099,1.851-0.299
		c0.396-0.141,0.777-0.321,1.137-0.539l0.655,3.883c-0.452,0.295-0.934,0.545-1.435,0.747c-0.755,0.335-1.771,0.51-3.046,0.51
		c-2.47,0-4.32-0.692-5.556-2.066c-1.238-1.373-1.851-3.654-1.851-6.841v-16.546h-3.468v-3.228l3.468-0.717l0.536-8.003h4.299v8.003
		h6.874l-0.594,3.945L531.574,263.232z M549.679,263.531c-0.248-0.131-0.511-0.231-0.783-0.299
		c-0.525-0.136-1.067-0.197-1.609-0.182c-1.516,0-2.696,0.412-3.556,1.228c-0.802,0.736-1.425,1.646-1.821,2.659v21.027h-4.846
		v-28.68h4.427v3.883h0.116c0.196-0.558,0.455-1.104,0.776-1.64c0.316-0.539,0.717-1.02,1.194-1.435
		c0.474-0.419,1.046-0.747,1.701-0.983c0.76-0.257,1.559-0.381,2.36-0.364c0.678,0,1.225,0.062,1.64,0.182
		c0.423,0.12,0.75,0.218,0.991,0.298l-0.598,4.299L549.679,263.531z M573.569,259.287l-8.962,30.345
		c-1.034,3.508-2.295,6.156-3.788,7.949c-1.494,1.792-3.658,2.688-6.484,2.688c-0.598,0-1.093-0.073-1.494-0.208
		c-0.285-0.094-0.564-0.203-0.838-0.328v-4.189c0.2,0.084,0.459,0.175,0.776,0.273c0.32,0.102,0.739,0.146,1.257,0.146
		c1.712,0,3.016-0.532,3.912-1.61c0.896-1.075,1.661-2.725,2.295-4.955l0.423-1.494l-9.26-28.618h5.201l4.481,15.89
		c0.437,1.639,0.837,3.159,1.194,4.572c0.357,1.414,0.576,2.678,0.656,3.789h0.12c0.072-1.111,0.266-2.368,0.564-3.759
		c0.299-1.396,0.667-2.907,1.104-4.539l4.062-15.956h4.779L573.569,259.287z M230.313,333.864c0-2.63,0.31-4.899,0.925-6.812
		c0.619-1.913,1.457-3.476,2.514-4.688c0.989-1.166,2.236-2.086,3.643-2.688c1.39-0.581,2.883-0.875,4.39-0.867
		c1.592,0,3.06,0.292,4.419,0.867c1.355,0.576,2.528,1.472,3.526,2.688c0.994,1.213,1.785,2.776,2.357,4.688
		c0.583,1.913,0.867,4.182,0.867,6.812c0,2.667-0.298,4.954-0.896,6.867s-1.421,3.476-2.477,4.692
		c-1.057,1.213-2.28,2.099-3.679,2.66c-1.392,0.557-2.863,0.838-4.416,0.838c-1.595,0-3.067-0.281-4.422-0.838
		c-1.377-0.578-2.587-1.492-3.519-2.66c-0.998-1.216-1.785-2.769-2.36-4.663c-0.583-1.895-0.867-4.189-0.867-6.896H230.313z
		 M247.938,333.864c0-3.825-0.557-6.604-1.676-8.335c-1.115-1.734-2.667-2.597-4.663-2.597c-1.985,0-3.534,0.863-4.626,2.597
		c-1.093,1.73-1.639,4.51-1.639,8.335s0.557,6.568,1.675,8.244c1.111,1.676,2.66,2.506,4.656,2.506c1.989,0,3.534-0.838,4.626-2.506
		C247.384,340.432,247.938,337.685,247.938,333.864z M270.756,323.467h-5.854v24.728h-4.838V323.46h-3.468v-3.221l3.468-0.655
		v-5.738c0-1.555,0.219-2.892,0.656-4.007s1.02-2.029,1.734-2.747c0.704-0.708,1.565-1.24,2.514-1.552
		c0.955-0.32,1.967-0.481,3.045-0.481c1.035,0,1.909,0.146,2.623,0.419c0.721,0.281,1.202,0.499,1.439,0.656l-1.013,4.007
		c-0.323-0.202-0.665-0.373-1.02-0.51c-0.515-0.192-1.061-0.284-1.61-0.27c-1.155,0-2.029,0.357-2.623,1.071
		c-0.601,0.717-0.9,2.033-0.9,3.945v5.137h6.448l-0.594,3.941L270.756,323.467z M308.033,311.1h-14.691v14.218h13.497v4.117h-13.497
		v14.462h16.185l-0.299,4.299h-21.085v-41.215h20.255l-0.365,4.124V311.1z M313.709,334.275c0-2.907,0.383-5.337,1.137-7.286
		c0.758-1.953,1.734-3.526,2.93-4.721c1.194-1.191,2.549-2.04,4.061-2.535c1.465-0.49,2.999-0.742,4.543-0.747
		c0.918,0,1.713,0.065,2.391,0.208c0.677,0.139,1.238,0.306,1.676,0.51v-13.745l4.837-0.536v42.767h-4.419v-3.042h-0.12
		c-0.483,0.882-1.155,1.646-1.967,2.24c-0.642,0.461-1.347,0.823-2.095,1.075c-0.838,0.299-1.814,0.448-2.929,0.448
		c-1.355,0-2.642-0.27-3.854-0.802c-1.264-0.578-2.361-1.463-3.195-2.575c-0.91-1.173-1.639-2.685-2.178-4.539
		c-0.535-1.851-0.801-4.091-0.801-6.721H313.709z M325.061,344.61c1.771,0.036,3.474-0.679,4.688-1.967
		c0.302-0.321,0.532-0.601,0.692-0.838v-17.679c-0.48-0.298-0.994-0.539-1.53-0.718c-0.704-0.217-1.438-0.318-2.175-0.299
		c-1.115,0-2.164,0.193-3.133,0.572c-0.984,0.375-1.829,1.005-2.543,1.879c-0.718,0.875-1.285,2.011-1.705,3.406
		c-0.415,1.395-0.627,3.107-0.627,5.136c0,1.993,0.172,3.654,0.511,4.991c0.335,1.333,0.802,2.404,1.402,3.224
		c0.598,0.816,1.274,1.402,2.029,1.763c0.758,0.357,1.556,0.536,2.39,0.536V344.61z M362.757,348.195h-4.426v-3.224h-0.109
		c-0.12,0.237-0.379,0.583-0.776,1.046c-0.451,0.501-0.965,0.942-1.53,1.311c-0.611,0.419-1.358,0.787-2.236,1.107
		c-0.874,0.317-1.847,0.474-2.922,0.474c-1.274,0-2.419-0.182-3.435-0.564c-1.009-0.374-1.903-1.001-2.598-1.822
		c-0.718-0.837-1.268-1.923-1.64-3.26c-0.382-1.333-0.571-2.976-0.571-4.929v-18.815h4.838v18.458c0,2.39,0.39,4.091,1.165,5.107
		c0.776,1.02,1.982,1.522,3.614,1.522c1.395,0,2.568-0.346,3.526-1.045c0.954-0.692,1.712-1.384,2.27-2.058v-21.985h4.837v28.669
		L362.757,348.195z M386.115,325.077c-0.187-0.183-0.376-0.363-0.568-0.539c-0.304-0.271-0.633-0.51-0.984-0.714
		c-0.452-0.264-0.934-0.476-1.435-0.63c-0.62-0.187-1.266-0.277-1.913-0.266c-1.03,0-1.996,0.189-2.893,0.565
		c-0.896,0.379-1.675,0.983-2.331,1.821c-0.655,0.838-1.173,1.923-1.552,3.257c-0.379,1.34-0.568,2.961-0.568,4.874
		c0,2.113,0.171,3.883,0.51,5.319c0.339,1.432,0.802,2.575,1.402,3.431c0.594,0.856,1.319,1.476,2.179,1.851
		c0.856,0.379,1.8,0.568,2.834,0.568c1.476,0,2.602-0.255,3.377-0.776c0.776-0.51,1.322-0.933,1.64-1.25l1.975,3.344
		c-0.269,0.309-0.559,0.599-0.867,0.867c-0.445,0.384-0.935,0.714-1.457,0.983c-0.694,0.355-1.428,0.626-2.186,0.809
		c-0.856,0.219-1.844,0.328-2.958,0.328c-1.592,0-3.086-0.255-4.481-0.776c-1.413-0.531-2.667-1.416-3.643-2.568
		c-1.034-1.195-1.851-2.75-2.448-4.663c-0.597-1.909-0.896-4.28-0.896-7.104c0-2.75,0.356-5.082,1.074-6.994
		c0.718-1.909,1.654-3.454,2.805-4.626c1.159-1.177,2.441-2.033,3.854-2.572c1.413-0.532,2.842-0.802,4.273-0.802
		c1.074,0,2.021,0.099,2.841,0.299c0.813,0.201,1.509,0.448,2.088,0.747c0.575,0.298,1.057,0.619,1.432,0.954
		c0.375,0.335,0.685,0.626,0.922,0.863l-2.029,3.406L386.115,325.077z M391.55,340.909c0-1.676,0.32-3.067,0.958-4.182
		s1.494-2.022,2.572-2.718c1.158-0.73,2.443-1.236,3.788-1.493c1.457-0.299,3.002-0.448,4.634-0.448h1.494v-2.747
		c0-2.43-0.431-4.102-1.286-5.017c-0.856-0.921-2.059-1.377-3.614-1.377c-1.432,0-2.622,0.306-3.584,0.925
		c-0.958,0.62-1.712,1.166-2.273,1.64l-2.029-3.224c0.313-0.313,0.722-0.674,1.221-1.071c0.495-0.401,1.104-0.776,1.821-1.137
		c1.729-0.846,3.631-1.275,5.556-1.253c2.95,0,5.173,0.816,6.691,2.448c1.512,1.639,2.27,4.262,2.27,7.887v13.078
		c0,1.238,0.037,2.44,0.12,3.617c0.08,1.177,0.157,1.967,0.237,2.36h-4.601l-0.183-3.169h-0.116
		c-0.157,0.364-0.401,0.772-0.714,1.228c-0.335,0.476-0.737,0.899-1.195,1.257c-0.53,0.407-1.115,0.738-1.737,0.983
		c-0.762,0.294-1.574,0.437-2.39,0.419c-1.075,0-2.077-0.2-3.017-0.597c-1.874-0.788-3.343-2.308-4.065-4.208
		c-0.387-1.021-0.579-2.104-0.568-3.195L391.55,340.909z M400.213,344.792c0.678,0,1.274-0.102,1.792-0.299
		c0.518-0.2,0.966-0.437,1.348-0.718c0.375-0.28,0.692-0.583,0.947-0.925c0.225-0.292,0.455-0.58,0.692-0.863v-6.331l-1.552,0.058
		c-2.313,0.084-4.065,0.481-5.261,1.202c-1.194,0.714-1.792,1.869-1.792,3.46c0,1.472,0.339,2.58,1.02,3.315
		c0.675,0.736,1.61,1.107,2.806,1.107V344.792z M429.305,323.463h-6.273v15.883c0,2.04,0.255,3.424,0.776,4.153
		c0.521,0.74,1.395,1.107,2.63,1.107c0.718,0,1.333-0.098,1.851-0.299c0.396-0.139,0.776-0.319,1.137-0.535l0.655,3.883
		c-0.451,0.296-0.931,0.547-1.432,0.75c-0.758,0.339-1.773,0.51-3.049,0.51c-2.466,0-4.32-0.692-5.556-2.065
		c-1.23-1.377-1.851-3.657-1.851-6.841v-16.539h-3.46v-3.228l3.46-0.718l0.539-8.007h4.299v8.003h6.871L429.305,323.463z
		 M439.64,348.191h-4.846v-28.669h4.846V348.191z M437.246,312.589c-0.995,0-1.793-0.32-2.39-0.958
		c-0.598-0.637-0.896-1.472-0.896-2.506c0-0.998,0.303-1.814,0.899-2.452c0.598-0.634,1.396-0.947,2.391-0.947
		c0.958,0,1.733,0.313,2.331,0.947c0.598,0.641,0.896,1.458,0.896,2.456c0,1.035-0.303,1.869-0.9,2.506
		c-0.603,0.641-1.452,0.99-2.331,0.958V312.589z M445.733,333.856c0-2.63,0.307-4.899,0.922-6.812
		c0.619-1.913,1.457-3.476,2.514-4.688c0.989-1.166,2.236-2.086,3.643-2.688c1.39-0.58,2.881-0.875,4.387-0.867
		c1.595,0,3.067,0.291,4.422,0.867c1.355,0.576,2.528,1.472,3.522,2.688c1.002,1.213,1.785,2.776,2.368,4.688
		c0.575,1.913,0.863,4.182,0.863,6.812c0,2.667-0.299,4.954-0.896,6.867c-0.594,1.913-1.42,3.476-2.477,4.692
		c-1.057,1.213-2.277,2.099-3.672,2.66c-1.396,0.557-2.867,0.838-4.423,0.838c-1.592,0-3.06-0.281-4.419-0.838
		c-1.38-0.577-2.593-1.491-3.526-2.66c-0.994-1.216-1.784-2.769-2.356-4.663c-0.583-1.894-0.867-4.189-0.867-6.896H445.733z
		 M463.351,333.856c0-3.825-0.561-6.604-1.676-8.335c-1.114-1.734-2.667-2.597-4.663-2.597c-1.985,0-3.533,0.863-4.626,2.597
		c-1.093,1.73-1.64,4.51-1.64,8.335s0.554,6.568,1.669,8.244c1.118,1.676,2.67,2.506,4.663,2.506c1.988,0,3.533-0.838,4.626-2.506
		c1.093-1.675,1.64-4.422,1.64-8.244H463.351z M490.111,348.191v-18.455c0-2.426-0.408-4.167-1.225-5.224
		c-0.815-1.057-2.062-1.581-3.733-1.581c-1.436,0-2.63,0.357-3.585,1.075c-0.947,0.717-1.712,1.413-2.266,2.091v22.105h-4.838
		v-28.669h4.419v3.22h0.12c0.591-0.951,1.388-1.758,2.331-2.36c0.711-0.454,1.471-0.824,2.267-1.104
		c0.874-0.313,1.865-0.474,2.986-0.474c1.269,0,2.423,0.189,3.461,0.568c1.035,0.379,1.909,0.984,2.623,1.822
		c0.722,0.838,1.275,1.923,1.676,3.256c0.4,1.333,0.598,2.977,0.598,4.929v18.815h-4.838L490.111,348.191z M229.957,401.151
		c0-1.676,0.317-3.067,0.954-4.183c0.638-1.114,1.494-2.021,2.568-2.717c1.161-0.731,2.448-1.238,3.796-1.494
		c1.45-0.299,2.987-0.448,4.626-0.448h1.494v-2.747c0-2.43-0.43-4.102-1.286-5.02c-0.856-0.911-2.062-1.373-3.614-1.373
		c-1.435,0-2.63,0.31-3.584,0.925c-0.955,0.619-1.712,1.166-2.266,1.639l-2.033-3.22c0.32-0.321,0.729-0.678,1.224-1.075
		c0.499-0.4,1.107-0.779,1.822-1.137c1.729-0.845,3.631-1.274,5.555-1.253c2.951,0,5.173,0.82,6.688,2.452
		c1.515,1.628,2.27,4.262,2.27,7.883v13.078c0,1.238,0.043,2.44,0.124,3.617s0.161,1.967,0.241,2.36h-4.601l-0.182-3.169h-0.117
		c-0.16,0.364-0.4,0.765-0.717,1.228c-0.335,0.474-0.737,0.896-1.195,1.253c-0.528,0.406-1.11,0.737-1.73,0.983
		c-0.762,0.296-1.573,0.439-2.39,0.423c-1.079,0-2.084-0.2-3.024-0.598c-1.872-0.791-3.338-2.314-4.058-4.215
		c-0.386-1.019-0.579-2.102-0.568-3.191L229.957,401.151z M238.616,405.034c0.677,0,1.275-0.099,1.792-0.299
		c0.518-0.2,0.965-0.437,1.341-0.718c0.379-0.272,0.699-0.582,0.958-0.921c0.225-0.294,0.455-0.583,0.692-0.867v-6.339l-1.555,0.062
		c-2.31,0.081-4.062,0.481-5.257,1.195c-1.195,0.718-1.792,1.872-1.792,3.468c0,1.472,0.339,2.576,1.02,3.315
		c0.674,0.735,1.61,1.104,2.805,1.104H238.616z M271.11,408.44v-18.458c0-2.43-0.401-4.175-1.22-5.228
		c-0.816-1.056-2.062-1.584-3.734-1.584c-1.432,0-2.623,0.364-3.584,1.075c-0.954,0.717-1.712,1.413-2.27,2.091v22.105h-4.837
		v-28.677h4.418v3.228h0.121c0.12-0.244,0.378-0.59,0.776-1.049c0.4-0.459,0.921-0.896,1.559-1.312
		c0.711-0.456,1.473-0.827,2.27-1.107c0.874-0.321,1.876-0.474,2.987-0.474c1.275,0,2.434,0.182,3.468,0.561s1.913,0.983,2.63,1.821
		c0.714,0.838,1.275,1.923,1.676,3.257c0.394,1.337,0.594,2.98,0.594,4.929v18.815h-4.845L271.11,408.44z M281.867,394.524
		c0-2.914,0.379-5.34,1.137-7.293c0.754-1.949,1.73-3.522,2.925-4.717c1.195-1.195,2.55-2.04,4.062-2.539
		c1.465-0.489,2.999-0.74,4.542-0.743c0.911,0,1.712,0.073,2.39,0.208c0.678,0.139,1.231,0.31,1.676,0.51v-13.749l4.834-0.535
		v42.774h-4.418v-3.049h-0.12c-0.484,0.882-1.155,1.646-1.967,2.24c-0.641,0.462-1.347,0.825-2.095,1.078
		c-0.838,0.291-1.821,0.444-2.933,0.444c-1.355,0-2.637-0.27-3.854-0.809c-1.263-0.576-2.361-1.459-3.195-2.568
		c-0.911-1.173-1.639-2.688-2.178-4.539c-0.539-1.857-0.809-4.098-0.809-6.725L281.867,394.524z M293.218,404.855
		c0.758,0,1.432-0.095,2.029-0.291c1.014-0.323,1.929-0.9,2.659-1.676c0.299-0.32,0.528-0.598,0.692-0.838v-17.683
		c-0.48-0.298-0.994-0.539-1.53-0.717c-0.705-0.219-1.441-0.321-2.178-0.302c-1.115,0-2.161,0.189-3.133,0.568
		c-0.983,0.379-1.821,1.005-2.542,1.883c-0.718,0.875-1.282,2.011-1.701,3.403c-0.419,1.395-0.626,3.107-0.626,5.136
		c0,1.992,0.167,3.657,0.51,4.991c0.335,1.333,0.801,2.403,1.399,3.224c0.598,0.815,1.275,1.402,2.033,1.759
		c0.758,0.365,1.552,0.54,2.39,0.54V404.855z M343.337,408.444l-8.543-16.903c-0.933,0.079-1.868,0.119-2.805,0.12h-2.273v16.783
		h-5.19v-41.223h7.701c4.979,0,8.651,0.965,11.022,2.896c2.368,1.931,3.556,4.809,3.556,8.633c0,2.747-0.583,5.1-1.734,7.049
		c-1.154,1.949-2.929,3.443-5.318,4.481l9.68,18.16h-6.095V408.444z M341.246,379.053c0-2.63-0.729-4.572-2.179-5.829
		c-1.457-1.253-3.733-1.879-6.841-1.879h-2.507v16.192h2.27c3.14,0,5.472-0.736,6.983-2.211c1.516-1.472,2.27-3.563,2.27-6.266
		L341.246,379.053z M372.137,389.446c0,1.239-0.043,2.295-0.123,3.195c-0.069,0.788-0.149,1.575-0.241,2.361H357.14
		c0.156,3.388,0.885,5.876,2.179,7.468c1.297,1.592,3.161,2.39,5.588,2.39c0.838,0,1.596-0.095,2.273-0.291
		c1.424-0.401,2.721-1.164,3.763-2.215l1.796,3.405c-0.2,0.201-0.499,0.488-0.896,0.867c-0.4,0.375-0.936,0.754-1.613,1.13
		c-0.797,0.427-1.641,0.76-2.514,0.99c-1.149,0.298-2.333,0.438-3.52,0.419c-1.792,0-3.417-0.299-4.87-0.896
		c-1.45-0.597-2.725-1.554-3.701-2.78c-1.013-1.253-1.8-2.849-2.357-4.779c-0.557-1.931-0.837-4.247-0.837-6.958
		c0-2.55,0.291-4.747,0.866-6.594c0.576-1.858,1.362-3.38,2.361-4.575c0.994-1.195,2.148-2.077,3.46-2.66
		c1.312-0.575,2.732-0.863,4.244-0.863c2.747,0,4.899,0.863,6.448,2.598c1.556,1.73,2.331,4.335,2.331,7.795L372.137,389.446z
		 M363.052,382.999c-1.712,0-3.085,0.714-4.124,2.149c-1.034,1.432-1.632,3.497-1.784,6.211h10.447
		c0.036-0.2,0.073-0.488,0.091-0.867c0.021-0.408,0.03-0.816,0.029-1.224c0-1.989-0.4-3.534-1.194-4.626
		c-0.802-1.093-1.953-1.639-3.461-1.639L363.052,382.999z M390.949,385.563c-0.53-0.541-1.109-1.031-1.73-1.465
		c-0.838-0.619-1.938-0.925-3.29-0.925c-1.274,0-2.251,0.299-2.929,0.896c-0.646,0.526-1.021,1.316-1.02,2.149
		c0,1.079,0.313,1.967,0.933,2.66c0.611,0.699,1.559,1.442,2.834,2.24l1.785,1.071c1.956,1.155,3.489,2.404,4.604,3.734
		c1.114,1.33,1.676,3.053,1.676,5.166c0,2.27-0.791,4.183-2.361,5.734c-1.573,1.552-3.836,2.331-6.782,2.331
		c-1.155,0-2.172-0.12-3.046-0.364c-0.789-0.206-1.557-0.483-2.295-0.83c-0.592-0.276-1.146-0.628-1.646-1.046
		c-0.438-0.379-0.802-0.729-1.075-1.046l2.324-3.824c0.241,0.24,0.528,0.517,0.867,0.837c0.817,0.754,1.786,1.325,2.842,1.676
		c0.594,0.197,1.289,0.292,2.087,0.292c1.428,0,2.524-0.317,3.279-0.954c0.719-0.56,1.139-1.421,1.136-2.332
		c0.014-0.598-0.077-1.192-0.266-1.76c-0.18-0.498-0.456-0.956-0.813-1.348c-0.392-0.426-0.832-0.805-1.312-1.129
		c-0.592-0.408-1.19-0.806-1.796-1.195l-1.792-1.136c-1.792-1.155-3.195-2.368-4.211-3.643c-1.013-1.275-1.523-2.907-1.523-4.899
		c0-1.075,0.212-2.062,0.627-2.958c0.416-0.893,1.017-1.688,1.764-2.332c0.757-0.656,1.639-1.173,2.659-1.552
		c1.043-0.382,2.146-0.574,3.257-0.565c0.966-0.018,1.93,0.093,2.866,0.328c1.294,0.336,2.492,0.97,3.497,1.851
		c0.376,0.339,0.686,0.626,0.922,0.867l-2.091,3.46L390.949,385.563z M417.892,389.446c0,1.239-0.036,2.295-0.12,3.195
		c-0.068,0.788-0.147,1.575-0.237,2.361h-14.637c0.16,3.388,0.885,5.876,2.186,7.468c1.29,1.592,3.151,2.39,5.581,2.39
		c0.838,0,1.592-0.095,2.27-0.291c1.423-0.401,2.719-1.165,3.76-2.215l1.792,3.405c-0.2,0.201-0.499,0.488-0.896,0.867
		c-0.4,0.375-0.937,0.754-1.613,1.13c-0.794,0.427-1.636,0.759-2.507,0.99c-1.151,0.299-2.337,0.439-3.526,0.419
		c-1.796,0-3.417-0.299-4.87-0.896c-1.451-0.596-2.727-1.553-3.705-2.78c-1.02-1.253-1.803-2.849-2.36-4.779
		s-0.838-4.247-0.838-6.958c0-2.55,0.291-4.747,0.867-6.594c0.583-1.858,1.366-3.38,2.36-4.575s2.149-2.077,3.461-2.66
		c1.318-0.575,2.731-0.863,4.244-0.863c2.746,0,4.896,0.863,6.447,2.598c1.556,1.73,2.332,4.335,2.332,7.795L417.892,389.446z
		 M408.81,382.999c-1.712,0-3.085,0.714-4.116,2.149c-1.038,1.432-1.64,3.497-1.796,6.211h10.455c0.036-0.2,0.073-0.488,0.087-0.867
		c0.023-0.408,0.035-0.816,0.037-1.224c0-1.989-0.401-3.534-1.202-4.626c-0.794-1.093-1.949-1.639-3.461-1.639L408.81,382.999z
		 M422.671,401.154c0-1.676,0.316-3.067,0.954-4.182c0.638-1.115,1.494-2.022,2.568-2.718c1.158-0.73,2.443-1.236,3.789-1.493
		c1.457-0.299,2.998-0.448,4.634-0.448h1.493v-2.747c0-2.43-0.43-4.102-1.286-5.02c-0.859-0.911-2.065-1.374-3.617-1.374
		c-1.436,0-2.63,0.31-3.585,0.925c-0.954,0.62-1.712,1.166-2.27,1.64l-2.032-3.221c0.32-0.32,0.729-0.677,1.228-1.074
		c0.492-0.401,1.101-0.78,1.821-1.137c1.729-0.846,3.632-1.275,5.556-1.253c2.943,0,5.173,0.819,6.685,2.451
		c1.516,1.628,2.273,4.262,2.273,7.883v13.078c0,1.239,0.036,2.441,0.116,3.617c0.08,1.177,0.16,1.968,0.24,2.361h-4.601
		l-0.183-3.17h-0.12c-0.156,0.364-0.4,0.766-0.718,1.228c-0.334,0.475-0.736,0.896-1.194,1.254c-0.528,0.406-1.11,0.737-1.73,0.983
		c-0.762,0.296-1.573,0.438-2.39,0.423c-1.071,0-2.076-0.201-3.013-0.598c-1.873-0.79-3.342-2.313-4.062-4.215
		c-0.387-1.02-0.579-2.102-0.568-3.191L422.671,401.154z M431.334,405.038c0.677,0,1.274-0.099,1.792-0.299s0.965-0.438,1.348-0.718
		c0.372-0.273,0.692-0.583,0.947-0.922c0.225-0.294,0.455-0.583,0.692-0.866v-6.339l-1.556,0.062
		c-2.31,0.08-4.062,0.481-5.257,1.195c-1.194,0.718-1.792,1.872-1.792,3.468c0,1.472,0.339,2.575,1.02,3.315
		C429.202,404.67,430.139,405.038,431.334,405.038z M460.782,384.011c-0.245-0.13-0.506-0.23-0.775-0.298
		c-0.526-0.136-1.068-0.197-1.61-0.183c-1.512,0-2.696,0.412-3.552,1.228c-0.802,0.736-1.425,1.646-1.821,2.659v21.027h-4.846
		v-28.677h4.427v3.883h0.116c0.2-0.561,0.459-1.107,0.779-1.647c0.317-0.535,0.714-1.013,1.195-1.432
		c0.474-0.419,1.045-0.747,1.701-0.983c0.759-0.257,1.556-0.38,2.356-0.364c0.678,0,1.225,0.062,1.64,0.182
		c0.423,0.12,0.75,0.219,0.983,0.299l-0.594,4.298V384.011z M480.796,385.323c-0.186-0.182-0.375-0.36-0.568-0.536
		c-0.303-0.27-0.632-0.509-0.983-0.714c-0.453-0.263-0.935-0.473-1.435-0.626c-0.62-0.188-1.266-0.279-1.913-0.27
		c-1.034,0-2.004,0.189-2.896,0.568c-0.896,0.378-1.676,0.983-2.332,1.821c-0.655,0.838-1.173,1.923-1.552,3.257
		c-0.379,1.333-0.568,2.958-0.568,4.867c0,2.113,0.172,3.884,0.51,5.318c0.336,1.432,0.802,2.579,1.403,3.436
		c0.601,0.856,1.325,1.472,2.186,1.851c0.853,0.379,1.8,0.568,2.834,0.568c1.476,0,2.601-0.255,3.377-0.772
		c0.775-0.518,1.322-0.937,1.64-1.257l1.974,3.352c-0.269,0.307-0.558,0.594-0.866,0.859c-0.449,0.385-0.942,0.715-1.469,0.983
		c-0.691,0.353-1.423,0.622-2.178,0.802c-0.86,0.226-1.848,0.335-2.962,0.335c-1.592,0-3.086-0.262-4.48-0.779
		c-1.414-0.531-2.668-1.416-3.644-2.568c-1.034-1.194-1.851-2.747-2.447-4.663c-0.598-1.908-0.896-4.276-0.896-7.104
		c0-2.75,0.354-5.078,1.071-6.994c0.717-1.909,1.649-3.45,2.805-4.626c1.158-1.173,2.44-2.029,3.854-2.568
		c1.413-0.54,2.841-0.802,4.272-0.802c1.075,0,2.021,0.095,2.842,0.292c0.813,0.201,1.508,0.452,2.087,0.75
		c0.576,0.299,1.057,0.619,1.432,0.955c0.383,0.338,0.692,0.626,0.929,0.867l-2.028,3.402L480.796,385.323z M503.557,408.444
		v-18.458c0-2.43-0.408-4.175-1.224-5.228c-0.819-1.057-2.062-1.585-3.734-1.585c-1.435,0-2.63,0.364-3.584,1.075
		c-0.955,0.718-1.712,1.414-2.267,2.091v22.105h-4.845v-42.243l4.845-0.535v17.026h0.117c0.16-0.24,0.408-0.557,0.747-0.954
		c0.338-0.401,0.809-0.802,1.405-1.195c1.543-1.01,3.355-1.53,5.199-1.494c2.513,0,4.502,0.816,5.974,2.448
		c1.476,1.628,2.212,4.335,2.212,8.123v18.815h-4.838L503.557,408.444z M100.781,284.638c0.138-1.122,0.219-2.28,0.219-3.46
		c0-0.656,0-1.406-0.073-2.259c10-0.146,18.775-7.351,18.775-15.639c0-4.215-2.75-7.395-4.298-9.3
		c0.342-0.073,0.692-0.157,1.056-0.24c1.457,1.275,5.617,5.803,5.617,11.519C122.077,275.203,112.139,284.434,100.781,284.638
		 M90.701,250.009c-0.172-1.078-0.601-2.098-1.249-2.976c0.036-1.02,0.452-1.985,2.083-1.188c-0.882,0.911-0.2,2.513-0.2,2.513
		s1.807-0.837,1.432-2.04c2.681,0.645,0.75,4.244-2.066,3.694 M88.377,255.112c-0.376-1.523-1.09-2.942-2.087-4.153
		c-0.885-1.049-2.346-2.288-4.313-2.288c-0.896,0-2.404,0.423-3.362,0.827c-0.357-0.656-1.056-2.222-1.056-2.933
		c0-0.729,1.231-1.464,3.588-1.464c5.18,0,8.27,2.338,8.27,6.266c0,1.384-0.546,2.634-1.038,3.752 M101.681,321.882
		c0.426-0.012,0.851,0.064,1.246,0.226c1.486,4.058,7.235,11.712,7.475,12.04l0.051,0.073l0.083-0.022
		c1.41-0.226,5.009-0.765,8.015-0.765h0.073c0.328,0,0.699,0,0.936,0.226c0.197,0.197,0.292,0.539,0.292,1.02
		c0,0.754-0.317,2.033-0.699,2.579c-1.057-1.147-2.769-1.665-5.501-1.665c-0.827,0-1.803,0.244-2.332,0.386l-0.218,0.043
		l-0.241,0.065l1.578,1.581c2.44,2.441,4.546,4.543,4.546,5.945c0,0.838-0.82,1.938-1.567,2.426c-0.171-2.564-2.761-6-5.282-7.923
		l-0.219-0.157l-0.037,0.903c-0.036,0.612-0.095,1.53-0.095,2.514c0,4.881-0.495,5.628-2.186,5.628
		c-0.31-0.009-0.617-0.064-0.911-0.164c0.958-1.18,1.333-2.732,1.333-5.464l-0.015-1.264l-0.015-1.013
		c0-1.118,0.117-1.949,0.208-2.615l0.044-0.375l-0.266-0.036c-1.122-0.176-2.253-0.282-3.388-0.317
		c-2.419,0-4.055,0.218-5.239,1.337c-0.783-0.634-1.588-1.723-1.588-2.404c0-1.02,0.634-1.104,1.468-1.104
		c0.416,0,0.809,0.058,1.348,0.124c1.042,0.16,2.604,0.39,5.821,0.39h0.2l-0.065-0.193c-0.813-2.332-3.053-5.73-6.641-10.091
		c0.32-1.166,0.638-1.931,1.767-1.931 M70.669,333.908l-0.073,0.193H70.8c3.213,0,4.78-0.229,5.818-0.386
		c0.546-0.062,0.936-0.12,1.355-0.12c0.831,0,1.468,0.08,1.468,1.1c0,0.681-0.801,1.771-1.581,2.404
		c-1.191-1.115-2.827-1.337-5.238-1.337c-1.129,0-2.605,0.204-3.388,0.313l-0.131,0.011l-0.139,0.022l0.044,0.372
		c0.095,0.667,0.211,1.494,0.211,2.615l-0.014,1.013l-0.015,1.261c0,2.732,0.375,4.288,1.333,5.464
		c-0.293,0.1-0.601,0.157-0.911,0.167c-1.694,0-2.186-0.743-2.186-5.625c0-0.984-0.051-1.905-0.084-2.514l-0.051-0.911l-0.211,0.164
		c-2.521,1.931-5.118,5.362-5.275,7.927c-0.758-0.488-1.581-1.588-1.581-2.43c0-1.406,2.106-3.508,4.546-5.949l1.406-1.398
		l0.182-0.183l-0.463-0.109c-0.759-0.222-1.542-0.352-2.331-0.386c-2.74,0-4.444,0.517-5.501,1.665
		c-0.386-0.546-0.703-1.821-0.703-2.575c0-0.485,0.095-0.827,0.292-1.02c0.237-0.233,0.608-0.233,0.933-0.233h0.073
		c3.013,0,6.616,0.546,8.021,0.765l0.084,0.022l0.051-0.073c0.248-0.328,5.989-7.978,7.486-12.04
		c0.392-0.162,0.814-0.239,1.239-0.226c1.129,0,1.446,0.765,1.774,1.931c-3.596,4.364-5.836,7.759-6.648,10.091 M55.161,265.258
		c0-5.719,4.164-10.244,5.628-11.519c0.35,0.083,0.703,0.164,1.056,0.24c-1.559,1.902-4.31,5.085-4.31,9.3
		c0,8.378,8.947,15.643,19.078,15.643c-0.068,0.751-0.102,1.504-0.102,2.258c0,1.231,0.065,2.379,0.182,3.461
		c-11.45-0.065-21.537-9.362-21.537-19.38 M132,282.889c5.144,8.131,9.162,7.996,15.238,7.996c-5.027-3.851-8.35-8.779-9.934-11.304
		l-9.384-15.016c-0.926-4.708-3.35-8.989-6.911-12.204c1.209-0.463,2.211-0.947,2.816-1.399c-6.131,0-12.203-3.115-15.547-3.115
		c-2.149,0-3.534,1.29-3.534,2.987c0.139,1.894,2.087,3.814,5.683,3.814c0.816,0,1.858-0.109,3.005-0.292
		c1.949,2.71,3.519,5.166,3.519,8.67c0,6.575-7.868,11.701-15.803,11.701c-0.452,0-0.874-0.022-1.322-0.055
		c-0.721-1.628-3.118-4.364-3.118-7.479c0-5.224,3.41-9.493,3.41-14.666c0-3.22-1.566-5.209-2.167-6.04
		c0.973-0.903,2.04-2.014,2.288-2.776c-0.568,0.244-1.238,0.273-2.222,0.273c-3.792-0.004-6.889-0.987-9.912-0.987
		c-1.727,0-2.186,0.532-2.186,1.038c0,0.182,0.022,0.379,0.073,0.466c-0.636-0.248-1.295-0.431-1.967-0.546
		c-0.947-0.175-1.908-0.26-2.871-0.255c-3.679,0-4.983,1.541-4.983,2.859c0,1.115,0.882,3.155,1.88,4.71
		c1.432-0.718,3.151-1.202,3.934-1.202c1.953,0,3.687,1.858,4.605,4.051c-1.312,0.16-1.567,0.219-2.885,0.219
		c-3.581,0-6.011-1.282-6.521-1.282c-0.043,0-0.138,0.025-0.138,0.109c0,0.499,1.02,1.822,3.013,2.55
		c2.634,0.965,6.579,1.366,7.234,1.479c0,0.109-0.667,1.359-1.413,1.603c-0.153,0.051-0.318,0.055-0.474,0.011
		c-2.747-0.546-3.516-0.776-7.001-2.102c-0.109-0.036-0.171,0.025-0.171,0.139c0,1.384,3.57,4.43,6.776,5.599
		c-2.678,3.414-6.018,6.907-7.592,12.233c-0.441,0.032-0.884,0.049-1.326,0.051c-7.941,0-15.799-5.129-15.799-11.705
		c0-3.504,1.566-5.96,3.519-8.67c1.147,0.182,2.186,0.291,3.005,0.291c3.599,0,5.548-1.923,5.69-3.814
		c0-1.697-1.384-2.987-3.534-2.987c-3.344,0-9.413,3.119-15.555,3.119c0.608,0.455,1.614,0.936,2.816,1.395
		c-3.557,3.217-5.979,7.498-6.903,12.204l-9.384,15.012c-1.588,2.521-4.917,7.453-9.945,11.304c6.073,0,10.102,0.135,15.242-7.992
		l4.809-7.697c0.364,1.001,0.801,1.974,1.312,2.929l-9.57,15.318c-1.592,2.539-4.896,7.431-9.945,11.307
		c6.083,0,10.105,0.135,15.245-7.989l8.24-13.187c0.619,0.656,1.264,1.297,1.945,1.909l-11.621,18.615
		c-1.603,2.55-4.882,7.431-9.938,11.293c6.073,0,10.098,0.146,15.234-7.978l11.337-18.142c0.747,0.466,1.508,0.925,2.302,1.355
		L50.75,312.768c-1.592,2.539-4.881,7.406-9.93,11.293c6.073,0,10.098,0.138,15.238-7.985l14.244-22.804
		c0.849,0.32,1.701,0.63,2.568,0.911l-16.102,25.766c-1.566,2.513-4.925,7.468-9.927,11.292c6.069,0,10.102,0.146,15.238-7.978
		l17.158-27.467c0.175,0.037,0.346,0.058,0.517,0.095c0.466,1.482,0.794,2.867,0.794,4.248c0,8.634-5.665,16.247-12.458,22.134
		c0.437,0.189,1.191,0.255,1.894,0.255c1.403,0,2.306-0.073,2.943-0.182c-1.577,3.577-4.961,8.196-6.666,10.59
		c-2.222-0.401-5.464-0.718-7.577-0.718c-2.222,0-2.478,1.297-2.478,2.455c0,2.015,0.947,3.614,2.04,4.51
		c0.412-1.031,1.239-2.404,5.337-2.404c0.073,0,0.219,0.007,0.408,0.021c-1.195,1.337-4.943,4.372-4.943,6.813
		c0,1.61,1.77,4.036,4.105,4.036c-0.135-0.521-0.121-0.998-0.121-1.359c0-1.978,1.749-4.298,3.228-5.909
		c-0.044,0.481-0.019,0.43-0.019,0.995c0,4.67,0.426,6.819,3.388,6.819c1.457,0,2.462-0.801,2.805-1.038
		c-1.923-1.771-2.021-3.169-2.021-5.792c0-0.677,0.007-1.348,0.018-2.266c0.007-0.598,0-1.392-0.099-1.967
		c1.057-0.146,1.494-0.146,2.306-0.146c0,0,4.215-0.328,5.231,1.858c1.147-1.046,2.805-2.528,2.805-4.153
		c0-1.086-0.51-2.306-2.685-2.306c-0.824,0-3.406,0.503-5.574,0.503c0.583-1.29,3.169-5.075,5.413-7.821
		c0.346,1.063,0.875,2.215,2.047,3.158c0.167-1.767,1.202-7.358,3.963-10.623c0.321,2.204,0.75,4.47,0.75,9.242
		c0,11.621-2.791,20.196-8.717,21.835c0.772,1.348,2.404,2.55,4.095,2.55c2.167,0,3.351-2.452,4.553-4.772
		c0.627,1.712,2.361,5.901,4.095,5.901c1.741,0,3.479-4.189,4.105-5.901c1.202,2.321,2.386,4.772,4.554,4.772
		c1.694,0,3.322-1.202,4.098-2.55c-5.931-1.639-8.725-10.214-8.725-21.832c0-4.772,0.43-7.038,0.75-9.246
		c2.769,3.264,3.807,8.852,3.963,10.619c1.18-0.947,1.712-2.095,2.051-3.159c2.237,2.747,4.831,6.532,5.41,7.821
		c-2.164,0-4.754-0.502-5.574-0.502c-2.167,0-2.677,1.22-2.677,2.302c0,1.625,1.661,3.107,2.805,4.153
		c1.009-2.186,5.231-1.858,5.231-1.858c0.809,0,1.239,0,2.306,0.146c-0.087,0.652-0.121,1.31-0.102,1.967l0.018,2.273
		c0,2.623-0.102,4.018-2.029,5.792c0.346,0.237,1.348,1.035,2.805,1.035c2.969,0,3.395-2.149,3.395-6.82
		c0-0.564,0.015-0.51-0.025-0.994c1.479,1.614,3.231,3.934,3.231,5.909c0,0.364,0.021,0.838-0.124,1.358
		c2.342,0,4.116-2.426,4.116-4.043c0-2.44-3.752-5.464-4.954-6.801l0.415-0.018c4.102,0,4.929,1.374,5.341,2.404
		c1.316-1.125,2.063-2.778,2.04-4.51c0-1.159-0.255-2.456-2.478-2.456c-2.113,0-5.348,0.313-7.577,0.714
		c-1.712-2.394-5.082-7.016-6.666-10.601c0.641,0.117,1.548,0.189,2.951,0.189c0.699,0,1.457-0.065,1.894-0.255
		c-6.801-5.883-12.458-13.504-12.458-22.134c0-1.384,0.32-2.769,0.787-4.251c0.168-0.037,0.346-0.062,0.518-0.095l17.158,27.46
		c5.137,8.124,9.169,7.978,15.238,7.978c-4.998-3.825-8.357-8.779-9.927-11.293l-16.102-25.766c0.874-0.28,1.73-0.59,2.572-0.911
		l14.244,22.804c5.144,8.124,9.169,7.978,15.245,7.978c-5.056-3.88-8.342-8.743-9.938-11.293l-13.835-22.141
		c0.779-0.43,1.548-0.889,2.295-1.359l11.336,18.142c5.137,8.124,9.162,7.978,15.238,7.978c-5.057-3.861-8.335-8.743-9.938-11.293
		l-11.621-18.615c0.678-0.608,1.33-1.253,1.938-1.909l8.244,13.187c5.137,8.124,9.162,7.989,15.238,7.989
		c-5.053-3.88-8.342-8.772-9.945-11.311l-9.566-15.296c0.51-0.947,0.947-1.923,1.312-2.925L132,282.889z M195.294,348.198h-17.569
		V247.801h17.569V348.198z"/>
	<path fill="#FF0000" d="M195.294,448.603h-17.569V348.195h17.569V448.603z"/>
	<path fill="#FFCC00" d="M195.294,549h-17.569V448.603h17.569V549z"/>
</g>
</svg>
