<?xml version="1.0" encoding="utf-8"?>
<!-- Generator: Adobe Illustrator 16.0.3, SVG Export Plug-In . SVG Version: 6.00 Build 0)  -->
<!DOCTYPE svg PUBLIC "-//W3C//DTD SVG 1.1//EN" "http://www.w3.org/Graphics/SVG/1.1/DTD/svg11.dtd">
<svg version="1.1"
	 id="svg2" sodipodi:version="0.32" sodipodi:docname="bauhaus-logo.svg" inkscape:output_extension="org.inkscape.output.svg.inkscape" inkscape:version="0.46" xmlns:inkscape="http://www.inkscape.org/namespaces/inkscape" xmlns:sodipodi="http://sodipodi.sourceforge.net/DTD/sodipodi-0.dtd" xmlns:svg="http://www.w3.org/2000/svg" xmlns:rdf="http://www.w3.org/1999/02/22-rdf-syntax-ns#" xmlns:cc="http://creativecommons.org/ns#" xmlns:dc="http://purl.org/dc/elements/1.1/"
	 xmlns="http://www.w3.org/2000/svg" xmlns:xlink="http://www.w3.org/1999/xlink" x="0px" y="0px" width="450px" height="425px"
	 viewBox="0 0 450 425" enable-background="new 0 0 450 425" xml:space="preserve">
<defs>
	
	
		<inkscape:perspective  inkscape:persp3d-origin="372.04724 : 350.78739 : 1" sodipodi:type="inkscape:persp3d" inkscape:vp_x="0 : 526.18109 : 1" inkscape:vp_y="0 : 1000 : 0" inkscape:vp_z="744.09448 : 526.18109 : 1" id="perspective10">
		</inkscape:perspective>
	
		<inkscape:perspective  inkscape:persp3d-origin="372.04724 : 350.78739 : 1" sodipodi:type="inkscape:persp3d" inkscape:vp_x="0 : 526.18109 : 1" inkscape:vp_y="0 : 1000 : 0" inkscape:vp_z="744.09448 : 526.18109 : 1" id="perspective2464">
		</inkscape:perspective>
</defs>
<sodipodi:namedview  units="pt" inkscape:window-x="1396" inkscape:window-width="1280" inkscape:pageopacity="0" inkscape:document-units="px" inkscape:current-layer="layer1" inkscape:pageshadow="2" inkscape:window-y="-4" inkscape:window-height="1005" inkscape:zoom="0.7" inkscape:cx="629.03188" inkscape:cy="340.737" showgrid="false" borderopacity="1.0" id="base" bordercolor="#666666" pagecolor="#ffffff">
	</sodipodi:namedview>
<g id="layer1" transform="translate(-38.839282,-19.772887)" inkscape:label="Ebene 1" inkscape:groupmode="layer">
	<rect id="rect3302" x="38.839" y="20.487" width="452.857" height="427.143"/>
	
		<path id="path2470" sodipodi:type="arc" sodipodi:cy="230.57646" sodipodi:cx="240.35715" sodipodi:rx="206.78572" sodipodi:ry="198.92857" fill="none" stroke="#FFFFFF" stroke-width="3.7893" d="
		M464.857,234.005c0,110.654-90.022,200.356-201.071,200.356c-111.048,0-201.071-89.702-201.071-200.356
		S152.737,33.648,263.786,33.648C374.834,33.648,464.857,123.351,464.857,234.005z"/>
	<rect id="rect3244" x="192.714" y="102.219" fill="#FFFFFF" width="64.286" height="63.214"/>
	<rect id="rect3246" x="253.607" y="164.719" fill="#FFFFFF" width="3.393" height="38.929"/>
	<rect id="rect3248" x="155.786" y="102.219" fill="#FFFFFF" width="38.929" height="3.393"/>
	<rect id="rect3250" x="301.286" y="38.514" fill="#FFFFFF" width="10.714" height="242.455"/>
	<rect id="rect3252" x="285.572" y="279.295" fill="#FFFFFF" width="17.857" height="110.224"/>
	<rect id="rect3254" x="267.624" y="278.246" fill="#FFFFFF" width="44.375" height="2.724"/>
	<rect id="rect3256" x="266.956" y="320.412" fill="#FFFFFF" width="31.606" height="8.17"/>
	<rect id="rect3258" x="210.661" y="384.652" fill="#FFFFFF" width="92.769" height="4.867"/>
	<rect id="rect3260" x="239.634" y="386.929" fill="#FFFFFF" width="46.875" height="47.009"/>
</g>
<text transform="matrix(1 0 0 1 52.1602 302.8086)" fill="#FFFFFF" font-family="'Helvetica'" font-size="14">AT INDUSTRY SCALE</text>
<text transform="matrix(1 0 0 1 33.1602 178.7412)" fill="#FFFFFF" font-family="'Helvetica'" font-size="14">ENABLING ACADEMIC</text>
<text transform="matrix(1 0 0 1 33.1602 205.875)" fill="#FFFFFF" font-family="'Helvetica'" font-size="21">COMPUTER SCIENCE</text>
<text transform="matrix(1 0 0 1 33.1602 230.0762)"><tspan x="0" y="0" fill="#FFFFFF" font-family="'Helvetica'" font-size="14">FOR THE FIRST TIME TO EXPLOIT </tspan><tspan x="0" y="15.799" fill="#FFFFFF" font-family="'Helvetica'" font-size="14">THE ENTIRE WEB FOR</tspan></text>
<text transform="matrix(1 0 0 1 43.1602 277.3447)" fill="#FFFFFF" font-family="'Helvetica'" font-size="21">AI RESEARCH</text>
</svg>
