<?xml version="1.0" encoding="utf-8"?>
<!-- Generator: Adobe Illustrator 16.0.3, SVG Export Plug-In . SVG Version: 6.00 Build 0)  -->
<!DOCTYPE svg PUBLIC "-//W3C//DTD SVG 1.1//EN" "http://www.w3.org/Graphics/SVG/1.1/DTD/svg11.dtd">
<svg version="1.1" id="Layer_1" xmlns="http://www.w3.org/2000/svg" xmlns:xlink="http://www.w3.org/1999/xlink" x="0px" y="0px"
	 width="548.25px" height="561px" viewBox="25.5 115.5 548.25 561" enable-background="new 25.5 115.5 548.25 561"
	 xml:space="preserve">
<g>
	<defs>
		<path id="SVGID_1_" d="M567.375,345H306v108.375h150.45C442.425,522.225,383.775,561.75,306,561.75
			c-91.8,0-165.75-73.95-165.75-165.75S214.2,230.25,306,230.25c39.525,0,75.225,14.025,103.275,36.975l81.6-81.6
			C441.15,142.275,377.4,115.5,306,115.5C150.45,115.5,25.5,240.45,25.5,396S150.45,676.5,306,676.5
			c140.25,0,267.75-102,267.75-280.5C573.75,379.425,571.2,361.575,567.375,345z"/>
	</defs>
	<clipPath id="SVGID_2_">
		<use xlink:href="#SVGID_1_"  overflow="visible"/>
	</clipPath>
	<path clip-path="url(#SVGID_2_)" fill="#FBBC05" d="M0,561.75v-331.5L216.75,396L0,561.75z"/>
</g>
<g>
	<defs>
		<path id="SVGID_3_" d="M567.375,345H306v108.375h150.45C442.425,522.225,383.775,561.75,306,561.75
			c-91.8,0-165.75-73.95-165.75-165.75S214.2,230.25,306,230.25c39.525,0,75.225,14.025,103.275,36.975l81.6-81.6
			C441.15,142.275,377.4,115.5,306,115.5C150.45,115.5,25.5,240.45,25.5,396S150.45,676.5,306,676.5
			c140.25,0,267.75-102,267.75-280.5C573.75,379.425,571.2,361.575,567.375,345z"/>
	</defs>
	<clipPath id="SVGID_4_">
		<use xlink:href="#SVGID_3_"  overflow="visible"/>
	</clipPath>
	<path clip-path="url(#SVGID_4_)" fill="#EA4335" d="M0,230.25L216.75,396L306,318.225L612,268.5V90H0V230.25z"/>
</g>
<g>
	<defs>
		<path id="SVGID_5_" d="M567.375,345H306v108.375h150.45C442.425,522.225,383.775,561.75,306,561.75
			c-91.8,0-165.75-73.95-165.75-165.75S214.2,230.25,306,230.25c39.525,0,75.225,14.025,103.275,36.975l81.6-81.6
			C441.15,142.275,377.4,115.5,306,115.5C150.45,115.5,25.5,240.45,25.5,396S150.45,676.5,306,676.5
			c140.25,0,267.75-102,267.75-280.5C573.75,379.425,571.2,361.575,567.375,345z"/>
	</defs>
	<clipPath id="SVGID_6_">
		<use xlink:href="#SVGID_5_"  overflow="visible"/>
	</clipPath>
	<path clip-path="url(#SVGID_6_)" fill="#34A853" d="M0,561.75L382.5,268.5l100.725,12.75L612,90v612H0V561.75z"/>
</g>
<g>
	<defs>
		<path id="SVGID_7_" d="M567.375,345H306v108.375h150.45C442.425,522.225,383.775,561.75,306,561.75
			c-91.8,0-165.75-73.95-165.75-165.75S214.2,230.25,306,230.25c39.525,0,75.225,14.025,103.275,36.975l81.6-81.6
			C441.15,142.275,377.4,115.5,306,115.5C150.45,115.5,25.5,240.45,25.5,396S150.45,676.5,306,676.5
			c140.25,0,267.75-102,267.75-280.5C573.75,379.425,571.2,361.575,567.375,345z"/>
	</defs>
	<clipPath id="SVGID_8_">
		<use xlink:href="#SVGID_7_"  overflow="visible"/>
	</clipPath>
	<path clip-path="url(#SVGID_8_)" fill="#4285F4" d="M612,702L216.75,396l-51-38.25L612,230.25V702z"/>
</g>
</svg>
